<svg width="99" height="90" viewBox="0 0 99 90" fill="none" xmlns="http://www.w3.org/2000/svg">
<path d="M48.2271 83.7089C47.6537 83.9787 47.1754 84.1013 46.6388 84.1013C45.3664 84.1013 44.7685 83.206 44.7685 81.86C44.7685 80.514 45.4093 79.6953 46.74 79.6953C47.39 79.6953 47.804 79.8517 48.1382 80.0724L47.7856 80.6949C47.5464 80.5354 47.1877 80.425 46.7461 80.425C45.9857 80.425 45.6393 81.0045 45.6393 81.8477C45.6393 82.8504 46.0041 83.3961 46.7216 83.3961C46.9976 83.3961 47.2643 83.3409 47.4636 83.2459V82.4671H46.878L46.8351 81.8539H48.2271V83.7119V83.7089Z" fill="#4F4D4D"/>
<path d="M51.6673 82.4892C51.6673 83.5409 51.1369 84.0989 50.217 84.0989C49.2972 84.0989 48.7698 83.5439 48.7698 82.4892C48.7698 81.5816 49.2757 80.8887 50.217 80.8887C51.1583 80.8887 51.6673 81.5816 51.6673 82.4892ZM50.821 82.4892C50.821 81.7472 50.6003 81.4866 50.217 81.4866C49.8338 81.4866 49.6191 81.7503 49.6191 82.4892C49.6191 83.2281 49.8123 83.4949 50.217 83.4949C50.6217 83.4949 50.821 83.2251 50.821 82.4892Z" fill="#4F4D4D"/>
<path d="M53.044 81.2691C53.182 81.082 53.5162 80.8919 53.8627 80.8919C54.5863 80.8919 55.1075 81.4101 55.1075 82.4925C55.1075 83.5748 54.4789 84.1052 53.7615 84.1052C53.3199 84.1052 53.0655 83.9335 52.8662 83.6699L52.7159 84.0409H52.2775V79.6992H53.1023V80.7754L53.0471 81.2721L53.044 81.2691ZM53.0992 83.1823C53.2249 83.351 53.4395 83.4951 53.6603 83.4951C54.019 83.4951 54.2827 83.2314 54.2827 82.4894C54.2827 81.7474 54.0497 81.4929 53.6726 81.4929C53.4641 81.4929 53.2402 81.6002 53.0992 81.7382V83.1793V83.1823Z" fill="#4F4D4D"/>
<path d="M55.9844 84.0369V81.5564L55.6318 81.4798V80.9524H56.8031V84.0369H55.9844ZM55.9599 79.6953H56.7908V80.4434H55.9599V79.6953Z" fill="#4F4D4D"/>
<path d="M58.2594 82.7161C58.2594 83.2067 58.5354 83.4765 59.0536 83.4765C59.3725 83.4765 59.6852 83.3446 59.955 83.2128L60.1114 83.7923C59.8538 83.9303 59.443 84.102 58.9524 84.102C57.9896 84.102 57.4285 83.5102 57.4285 82.4892C57.4285 81.5387 57.8823 80.8887 58.8696 80.8887C59.8017 80.8887 60.1727 81.5816 60.1727 82.3573V82.7161H58.2594ZM58.8328 81.4927C58.425 81.4927 58.2594 81.8637 58.2594 82.2286H59.3847C59.3847 81.833 59.259 81.4927 58.8297 81.4927" fill="#4F4D4D"/>
<path d="M62.549 81.6396C62.4478 81.6089 62.3098 81.5905 62.1657 81.5905C61.9449 81.5905 61.7518 81.6856 61.6107 81.799V84.0373H60.7921V80.9528H61.3654C61.3961 81.0969 61.4298 81.2318 61.4544 81.3667H61.4789C61.5709 81.146 61.8499 80.8945 62.2148 80.8945C62.3803 80.8945 62.4968 80.9191 62.5674 80.9405C62.5612 81.1736 62.5612 81.4066 62.549 81.6396Z" fill="#4F4D4D"/>
<path d="M64.959 84.0374V82.207C64.959 81.7409 64.7811 81.5202 64.404 81.5202C64.1894 81.5202 64.0054 81.6152 63.8613 81.7103V84.0374H63.0365V80.9529H63.6037L63.7294 81.3055C63.9042 81.097 64.2446 80.8916 64.7045 80.8916C65.4833 80.8916 65.7929 81.3515 65.7929 82.1334V84.0405H64.9559L64.959 84.0374Z" fill="#4F4D4D"/>
<path d="M69.2423 82.4892C69.2423 83.5409 68.7119 84.0989 67.7921 84.0989C66.8722 84.0989 66.3448 83.5439 66.3448 82.4892C66.3448 81.5816 66.8508 80.8887 67.7921 80.8887C68.7334 80.8887 69.2423 81.5816 69.2423 82.4892ZM68.3992 82.4892C68.3992 81.7472 68.1784 81.4866 67.7921 81.4866C67.4057 81.4866 67.1972 81.7503 67.1972 82.4892C67.1972 83.2281 67.3904 83.4949 67.7921 83.4949C68.1937 83.4949 68.3992 83.2251 68.3992 82.4892Z" fill="#4F4D4D"/>
<path d="M73.2436 81.1917C73.1915 81.0139 73.167 80.8575 73.167 80.6245V79.6924H73.9856V84.034H73.3172L73.2221 83.6937C73.0964 83.8807 72.799 84.0953 72.4035 84.0953C71.7044 84.0953 71.1433 83.5925 71.1433 82.4918C71.1433 81.4707 71.7228 80.8851 72.4709 80.8851C72.8052 80.8851 73.0688 80.9986 73.2405 81.1887M73.1639 81.6547C73.0382 81.578 72.845 81.5045 72.6059 81.5045C72.2165 81.5045 71.9712 81.7712 71.9712 82.4887C71.9712 83.2062 72.2042 83.5005 72.5967 83.5005C72.8021 83.5005 73.0106 83.4024 73.167 83.2368V81.6578L73.1639 81.6547Z" fill="#4F4D4D"/>
<path d="M75.439 82.7161C75.439 83.2067 75.7149 83.4765 76.23 83.4765C76.552 83.4765 76.8586 83.3446 77.1315 83.2128L77.2878 83.7923C77.0303 83.9303 76.6194 84.102 76.1288 84.102C75.1661 84.102 74.605 83.5102 74.605 82.4892C74.605 81.5387 75.0588 80.8887 76.0461 80.8887C76.9782 80.8887 77.3492 81.5816 77.3492 82.3573V82.7161H75.4359H75.439ZM76.0123 81.4927C75.6045 81.4927 75.439 81.8637 75.439 82.2286H76.5642C76.5642 81.833 76.4385 81.4927 76.0093 81.4927" fill="#4F4D4D"/>
<path d="M81.1021 84.1015C79.9063 84.1015 79.2716 83.2951 79.2716 81.8785C79.2716 80.5754 79.9002 79.6924 81.1021 79.6924C81.6816 79.6924 82.2029 79.8181 82.5493 80.0511L82.2335 80.7042C82.0128 80.5417 81.6295 80.416 81.188 80.416C80.4828 80.416 80.1301 80.9403 80.1301 81.8693C80.1301 82.8505 80.4828 83.3748 81.1726 83.3748C81.5896 83.3748 82.0066 83.2 82.2948 82.9854L82.5585 83.6477C82.1385 83.9359 81.6601 84.1015 81.099 84.1015" fill="#4F4D4D"/>
<path d="M83.1288 84.0369V79.6953H83.9536V80.8359C83.9536 81.0505 83.8861 81.2621 83.8739 81.3142C84.0487 81.0996 84.3062 80.8942 84.7477 80.8942C85.6369 80.8942 85.8883 81.3541 85.8883 82.1359V84.0431H85.0513V82.2126C85.0513 82.1298 85.039 82.0685 85.0053 82.0256C84.9808 81.6791 84.8029 81.5288 84.4963 81.5288C84.2817 81.5288 84.0977 81.6239 83.9536 81.7189V84.0461H83.1288V84.0369Z" fill="#4F4D4D"/>
<path d="M86.8082 84.0369V81.5564L86.4556 81.4798V80.9524H87.6268V84.0369H86.8082ZM86.7836 79.6953H87.6146V80.4434H86.7836V79.6953Z" fill="#4F4D4D"/>
<path d="M88.3749 83.2184V79.6924H89.1875V83.1724C89.1875 83.43 89.3438 83.4699 89.6842 83.4699V84.0493C89.6842 84.0493 89.445 84.0984 89.2304 84.0984C88.6018 84.0984 88.3749 83.7642 88.3749 83.2184Z" fill="#4F4D4D"/>
<path d="M90.9321 82.7161C90.9321 83.2067 91.208 83.4765 91.7231 83.4765C92.0451 83.4765 92.3517 83.3446 92.6246 83.2128L92.781 83.7923C92.5234 83.9303 92.1156 84.102 91.625 84.102C90.6623 84.102 90.1012 83.5102 90.1012 82.4892C90.1012 81.5387 90.555 80.8887 91.5422 80.8887C92.4744 80.8887 92.8454 81.5816 92.8454 82.3573V82.7161H90.9321ZM91.5055 81.4927C91.0946 81.4927 90.9321 81.8637 90.9321 82.2286H92.0574C92.0574 81.833 91.9316 81.4927 91.5024 81.4927" fill="#4F4D4D"/>
<path d="M97.1379 0.000976562H0V88.4679V90.001H98.671V1.53404V0.000976562H97.1379ZM1.53306 1.53404H39.9332V88.4679H1.53306V1.53404ZM97.1379 88.4679H41.4663V1.53404H97.1349V88.4679H97.1379Z" fill="#4F4D4D"/>
<path d="M21.9351 13.4548C22.0209 13.3843 22.2018 13.2279 22.0577 12.9335C21.9872 12.7956 21.8032 12.7833 21.8829 12.7649C22.8641 12.5349 23.3915 11.1 23.3608 10.5512C23.8667 11.0172 24.9981 11.149 25.8198 10.45C26.3503 9.93793 26.6078 8.59496 25.6972 7.92348C25.2342 7.58008 24.4094 7.54941 23.8943 7.94801C23.7318 7.67513 23.4497 7.47889 23.1462 7.47583C23.1431 7.38078 23.1584 6.73383 22.7752 6.31377C22.2846 5.77719 20.9048 5.73733 20.402 6.32296C19.4116 6.07461 18.1239 6.53146 18.1944 8.08599C17.4984 7.81004 17.0998 7.80697 16.7318 7.8407C16.3854 7.87442 15.9224 8.1841 15.763 8.39567C15.6894 8.49072 15.6066 8.62256 15.5483 8.73907C15.4349 8.9629 15.349 9.25418 15.3797 9.58226C15.4318 10.1342 15.7047 10.6002 16.1064 10.821C16.6583 11.1245 17.3604 11.0816 17.6118 11.0417C17.805 10.9988 18.0104 10.9283 18.2281 10.7014C18.2925 10.637 18.3385 10.5328 18.4335 10.5297C18.4335 10.6707 18.3814 11.4127 19.2123 11.7684C19.2154 11.8052 19.2277 11.8389 19.2369 11.891C19.5006 12.9151 20.1904 12.7894 20.1996 12.8599C19.893 13.0439 20.0249 13.3137 20.0954 13.4517C20.5614 13.3076 20.9079 13.2892 21.0183 13.2892C21.1287 13.2892 21.4751 13.3076 21.9412 13.4517L21.9351 13.4548Z" fill="#4F4D4D"/>
<path d="M24.2653 16.5449C24.2653 15.5178 24.9552 14.7236 24.9644 14.7144C25.041 14.6286 25.0472 14.5489 25.0441 14.4937C25.0288 14.3986 24.9552 14.3342 24.9429 14.3312C24.7436 14.1963 24.3021 13.9264 24.3021 13.9264L24.2653 13.8958H24.2285C24.1795 13.8958 24.1427 13.9234 24.0813 13.9694C23.9587 14.0644 23.7287 14.2422 23.3301 14.2422C23.2596 14.2422 23.186 14.2361 23.1094 14.2269C22.9009 14.1993 22.5513 14.0184 22.5513 14.0184C22.4379 13.9602 22.2938 13.8958 22.2355 13.8712L22.211 13.862C21.6376 13.626 21.1501 13.6045 21.0152 13.6045C20.8803 13.6045 20.3928 13.6229 19.8194 13.862L19.7918 13.8712C19.7612 13.8866 19.709 13.908 19.6477 13.9356L19.2982 14.1012C19.1817 14.1533 19.0314 14.2116 18.918 14.2269C18.8444 14.2361 18.7708 14.2422 18.6972 14.2422C18.2986 14.2422 18.0687 14.0644 17.946 13.9694C17.8847 13.9234 17.8479 13.8958 17.8019 13.8958H17.7682L17.7467 13.9142C17.7467 13.9142 17.2899 14.1932 17.1028 14.325C17.0722 14.3373 17.0017 14.3986 16.9863 14.4967C16.9802 14.5519 16.9863 14.6316 17.066 14.7144C17.0936 14.7482 17.7682 15.53 17.7651 16.5602C17.7835 16.6768 17.8326 17.2961 17.3052 18.2067C17.2807 18.2527 16.7012 19.3136 17.3359 20.2427C17.3359 20.2519 17.8142 21.1165 19.2001 21.1165C19.3135 21.1165 20.3376 21.1349 20.6902 21.791C20.7055 21.8156 20.8711 22.0793 20.9355 22.208L21.0152 22.3644L21.0919 22.208C21.1593 22.0793 21.3218 21.8217 21.3433 21.7849C21.6898 21.138 22.7138 21.1165 22.8273 21.1165C24.1948 21.1165 24.6854 20.2549 24.6854 20.2549C25.3354 19.3014 24.7283 18.2098 24.7222 18.2037C24.1948 17.293 24.2469 16.6737 24.2653 16.5418V16.5449ZM23.7287 16.5357L21.9381 17.8173L22.6219 19.8441L20.9018 18.541L19.1847 19.8441L19.8685 17.8173L18.0779 16.5357H18.0717H20.2824L20.9018 14.4845L21.5211 16.5357H23.7287Z" fill="#4F4D4D"/>
<path d="M36.2447 25.0535C36.0208 24.7806 35.426 24.9155 35.426 24.9155C35.7449 23.9619 34.8649 23.7105 34.8649 23.7105C34.5491 23.6277 34.3437 23.686 34.2088 23.778C34.2088 23.778 34.2026 23.781 34.1996 23.7841C34.1996 23.7841 34.1934 23.7872 34.1934 23.7902C34.1689 23.8056 34.1505 23.8209 34.1321 23.8424C34.0524 23.9251 34.0033 24.0386 34.0033 24.1582C34.0033 24.4096 34.2088 24.615 34.4633 24.615C34.5614 24.615 34.6503 24.5844 34.7269 24.5322C34.8189 24.4679 34.8833 24.3697 34.9078 24.2594C35.0305 24.336 35.0765 24.474 35.0765 24.474C35.334 25.2865 34.4203 25.5778 34.4203 25.5778C32.4059 26.1818 31.1733 25.1424 31.1733 25.1424L31.5259 24.9554C31.6485 24.9032 31.7589 24.8848 31.8448 24.8848C31.8417 24.9002 31.8386 24.9247 31.8386 24.9431C31.8386 25.1608 32.0195 25.3386 32.2372 25.3386C32.4549 25.3386 32.6358 25.1608 32.6358 24.9431C32.6358 24.7775 32.5561 24.6978 32.5561 24.6978C32.32 24.3421 31.5075 24.5782 31.5075 24.5782C31.7773 23.9098 31.5351 23.4315 31.5351 23.4315C31.158 22.6619 30.2719 22.9011 30.2719 22.9011C29.9622 22.9961 29.8978 23.269 29.8978 23.269C29.7782 23.8792 30.2841 23.9313 30.2841 23.9313C30.649 23.9497 30.6521 23.6553 30.6521 23.6553C30.698 23.3702 30.2964 23.3548 30.2964 23.3548C30.6367 22.757 31.7068 23.7381 31.0077 24.6028C30.9341 24.6886 30.8667 24.6304 30.8667 24.6304C29.6126 24.0079 28.9902 23.6032 28.6836 23.3732C28.6529 23.0329 28.3555 22.8581 28.4107 22.7662C28.4598 22.7447 28.6376 22.8336 28.7357 22.6864C28.7725 22.6312 28.8553 22.0916 28.9197 21.7083C30.0296 22.2142 30.9771 22.0609 31.1672 21.9996C31.2653 21.9598 31.3419 21.8892 31.345 21.7451C31.3634 21.322 30.2657 18.8354 30.2381 17.9585C30.7563 18.216 31.0752 17.4158 31.1702 17.1735C31.8662 17.4893 32.1054 23.9435 32.642 24.1612C32.9087 24.2686 33.016 23.8301 33.0406 23.7504C33.9021 20.8744 33.9297 18.0719 33.8746 17.1337C33.7887 15.6619 33.6691 14.3435 33.3135 13.1324C33.0958 12.3873 32.6726 10.8635 31.6884 10.655C31.2285 10.5568 30.879 10.9861 30.8851 11.3724C30.8912 11.7066 31.1242 11.8691 31.02 12.1972C30.8973 12.4118 30.7747 12.6449 30.7134 12.8871C30.6551 13.1263 30.8667 13.2244 30.7992 13.4789C30.4895 13.4329 30.3332 13.7057 29.8426 13.58C30.1615 13.4329 30.1645 12.5222 29.7751 12.3659C29.7169 12.3413 29.6494 12.3321 29.6402 12.28C29.6402 12.28 29.7659 12.1451 29.8303 12.0163C30.0542 11.5564 30.0542 11.1517 29.8763 10.8451C30.0388 10.8604 30.2075 10.5599 30.2289 10.3238H30.232C30.232 10.3238 30.232 10.3115 30.232 10.3054C30.2351 10.241 30.2259 10.0325 30.3178 9.83936C30.3485 9.77498 30.3178 9.70445 30.2627 9.67379C30.2075 9.64926 30.1339 9.67379 30.1002 9.73512C30.0051 9.94055 29.7721 9.82403 29.8702 9.62167C29.8978 9.55728 29.8702 9.48676 29.815 9.45917C29.7598 9.43464 29.6862 9.45303 29.6556 9.51742C29.5636 9.71365 29.3398 9.60327 29.4317 9.40704C29.4624 9.34265 29.4317 9.27213 29.3796 9.24454C29.3275 9.22001 29.2508 9.2384 29.2202 9.30586C29.1251 9.50822 28.8921 9.39478 28.9872 9.19548C29.0178 9.12802 28.9872 9.0575 28.932 9.02991C28.8768 9.00538 28.8062 9.02991 28.7725 9.09123C28.6713 9.30586 28.5977 9.39478 28.4904 9.48063C28.2727 9.52049 28.331 9.76884 28.3555 9.94055C27.9477 9.85163 27.6411 10.1613 27.6289 10.4403H27.5829C27.2456 10.4495 26.9236 10.6212 26.9482 10.934C26.9604 11.1087 27.1659 11.3295 27.2456 11.3326C27.2824 11.3203 27.2272 11.1455 27.402 11.1333C27.5614 11.1241 27.8006 11.262 27.8282 11.4123C27.8619 11.584 27.7208 12.001 28.2697 12.0623C28.2697 12.0623 28.2666 12.1482 28.2574 12.2371C28.0612 12.2248 28.0091 12.2125 27.8128 12.2432C27.4664 12.2984 26.9911 12.4946 26.8746 12.838C26.8531 12.8963 26.8439 13.0159 26.8531 13.0987C26.8593 13.1692 26.9267 13.2581 26.9175 13.3439C26.9114 13.3869 26.8378 13.4727 26.8102 13.5003C26.6661 13.6536 26.3963 13.7977 26.1602 13.81C25.8965 13.8223 25.642 13.6536 25.5378 13.5126C25.1882 13.0435 25.642 12.2309 25.6328 11.9274C25.6113 11.121 24.5934 11.6024 24.1917 11.8109C23.7103 12.0623 23.3271 12.4701 23.0051 12.8687C22.8273 13.0864 22.628 13.3623 22.5299 13.5954C22.5115 13.6383 22.4747 13.6444 22.4318 13.6444C22.6372 13.7364 23.0021 13.8744 23.2903 13.8775C23.2903 13.8775 23.8514 13.9541 24.2561 13.6168C24.2561 13.6168 24.3144 13.5678 24.3941 13.5678C24.4523 13.5678 24.5045 13.5923 24.5474 13.6322C24.5505 13.6383 24.6026 13.6782 24.6639 13.7272C24.7007 13.7548 24.7436 13.7916 24.7927 13.8284C24.8172 13.8468 24.8417 13.8652 24.8663 13.8867C24.9337 13.9388 25.0043 13.994 25.0778 14.0522C25.0901 14.0614 25.1024 14.0737 25.1177 14.0829C25.1974 14.1442 25.2771 14.2055 25.3446 14.2577C25.4274 14.319 25.5071 14.3772 25.5531 14.4079H25.5562C25.5562 14.4079 25.5837 14.4386 25.5899 14.4692C25.5899 14.4999 25.5776 14.5367 25.55 14.5704C25.55 14.5704 25.5071 14.6195 25.4427 14.6992C25.3078 14.8709 25.0809 15.2051 24.9061 15.6159C25.0962 15.9471 25.4151 16.3396 25.872 16.3457C26.2368 16.3488 26.3871 16.1678 26.4423 15.9318C26.4484 15.9379 26.4668 15.9624 26.4699 15.9624C26.5128 15.9226 26.7151 17.0141 26.9819 17.3115C26.7335 17.428 26.3472 17.8174 26.5557 18.8967C26.3503 18.7311 25.9731 18.446 25.7922 18.2589C25.6849 18.0351 25.4703 17.5108 24.8632 17.4587C24.9521 17.7285 25.0778 18.0321 25.2741 18.3724C25.2771 18.3816 25.6481 19.0653 25.5347 19.8411C25.7892 19.5804 25.7493 18.8599 25.7493 18.8599C25.7585 18.8507 25.7953 18.8384 25.8045 18.8354C25.8566 18.8323 26.1111 19.3321 26.5526 19.4363C27.1291 20.4206 27.776 21.0461 28.4015 21.4385C28.3893 21.6777 28.4199 22.2449 28.2666 22.2449C27.773 22.3553 27.3192 22.0211 26.8869 22.0456C26.8501 22.0272 26.8102 22.0119 26.8102 22.0119C24.9429 21.1135 22.4839 23.0421 22.073 23.4162C21.8584 23.6155 21.607 23.3426 21.607 23.3426C21.4598 23.1555 21.2666 23.0728 21.0765 23.0942C20.8895 23.0728 20.6933 23.1555 20.5492 23.3426C20.5492 23.3426 20.2977 23.6155 20.0831 23.4162C19.6937 23.0605 17.4646 21.3343 15.6434 21.923C15.6372 21.8249 15.3919 21.7727 15.3245 21.7482C15.1804 21.7083 15.0516 21.5918 14.9627 21.5489C14.7634 21.4508 14.4414 21.5121 14.2146 21.4845C14.1256 21.4722 14.003 21.4263 13.9263 21.3772C13.6351 21.1963 13.3008 20.9786 13.1169 20.7149C13.0862 20.672 13.0157 20.5739 13.0004 20.5555C12.9084 20.442 12.8655 20.3562 12.7949 20.1691C12.6968 19.8104 12.8501 19.4241 12.9023 19.0592C12.9421 18.7894 12.9329 18.771 12.9574 18.4828C14.1134 18.0842 14.5886 17.2165 14.8584 16.7535C14.883 16.7167 14.9566 16.5695 14.9566 16.5695C15.0087 16.5756 15.0577 16.5818 15.116 16.5848C15.579 16.5848 15.8887 16.3304 16.3976 16.3917C16.3976 16.4193 16.4651 16.6339 16.7932 16.7657C16.8024 17.0969 16.8269 17.3728 16.9526 17.6304C16.9802 17.6764 17.0139 17.7132 17.0415 17.75C17.2592 17.2165 17.3144 16.8025 17.3205 16.5511C17.3052 16.5297 17.2899 16.499 17.2807 16.4499C17.1734 15.8858 16.9097 15.7325 16.6613 15.5884C16.5387 15.5209 16.4038 15.5025 16.2873 15.4166C16.1064 15.294 15.9163 15.1622 15.7967 14.9291C15.7967 14.9291 15.8549 14.8739 15.9193 14.7942C16.2413 14.457 16.4038 13.9572 16.5233 13.4114C16.7717 13.0741 17.4585 13.206 17.7191 13.252C17.7866 13.2612 17.9 13.2857 17.9522 13.3255C18.0257 13.3777 18.0441 13.4942 18.1453 13.5371C18.2526 13.5831 18.3753 13.5494 18.5071 13.5371C18.5562 13.5923 18.5807 13.669 18.6175 13.7364C18.6175 13.7364 18.6543 13.8008 18.7218 13.8713C19.0437 13.8652 19.473 13.6966 19.6539 13.6046C19.6324 13.5892 19.614 13.577 19.6048 13.5616C19.4607 13.3777 19.243 13.1753 19.0406 13.1416C18.7861 13.0987 18.731 12.8718 18.4857 12.8227C18.4243 12.8043 18.2066 12.7736 18.1331 12.7982C17.5904 12.8687 17.2102 12.6633 16.7012 12.6265C16.2198 12.5927 16.2045 12.9208 16.0297 13.1937C15.9653 13.2949 15.8887 13.4145 15.8089 13.4911C15.6771 13.6199 15.5207 13.623 15.3613 13.7456L15.2877 13.5463C15.2417 13.3807 15.1804 13.206 15.0731 13.0435C14.8124 12.6326 14.512 12.3137 13.9325 12.1819C13.8221 12.1359 13.8037 12.1298 13.7301 12.0715C13.6351 11.9979 13.7025 11.909 13.7301 11.9029C13.8957 11.8078 14.1808 11.8415 14.3709 11.7557C14.8339 11.5411 14.6714 11.1455 14.4905 11.1149C14.2575 11.0719 13.8374 10.9616 13.7546 10.9125C13.6412 10.842 13.448 10.4894 13.2641 10.4005C13.0617 10.3453 13.1322 10.0141 12.9421 9.94055C12.8624 9.92522 12.7428 9.96814 12.611 10.0325C12.6018 9.96201 12.5527 9.58488 12.3442 9.46223C12.1878 9.37331 12.1327 9.51129 12.1388 9.60327C12.148 9.68299 12.3657 9.79337 12.4086 10.1521C12.3718 10.1766 12.335 10.1981 12.2952 10.2226C12.2645 10.0755 12.2001 9.84856 12.0468 9.75658C11.8904 9.66766 11.8352 9.80564 11.8414 9.89455C11.8475 9.97121 12.0407 10.0724 12.102 10.3729C12.056 10.4097 12.0131 10.4495 11.9701 10.4894C11.6574 10.4035 11.5746 10.192 11.498 10.1766C11.409 10.1582 11.268 10.2012 11.3416 10.3667C11.4182 10.5323 11.6513 10.6212 11.7923 10.6642C11.7617 10.6979 11.7341 10.7316 11.7065 10.7653C11.3447 10.6917 11.2557 10.4587 11.176 10.4403C11.0871 10.425 10.943 10.4679 11.0166 10.6304C11.1208 10.8604 11.5317 10.9493 11.5685 10.9554C11.5102 11.0536 11.4734 11.1425 11.4857 11.2069C11.2036 11.1731 10.7069 11.3264 10.7989 11.6576C10.8909 11.725 11.2251 11.4521 11.5286 11.6055C11.731 11.9182 12.0529 11.9305 12.1265 11.9887C12.24 12.0776 12.2553 12.2401 12.3074 12.3842C12.3963 12.6541 12.5864 12.8718 12.7459 13.1109C12.9176 13.3746 13.0985 13.6506 13.2794 13.8775C13.3008 13.9388 13.3223 14.0032 13.31 14.1013C13.1046 14.4294 12.4853 14.8126 12.2338 15.0487C11.9793 15.2879 9.56017 17.1306 9.25663 17.9309C9.18917 18.1118 9.14931 18.3417 9.16158 18.5809C9.0144 18.6606 8.68939 18.7863 8.58821 18.6422C8.40118 18.3816 8.76605 18.1854 8.68633 17.9339C8.64953 17.8389 8.50849 17.7714 8.41957 17.8389C7.81861 18.2712 8.12829 19.0347 8.50849 19.2094C8.92855 19.3842 8.98681 18.9335 9.31182 19.1144C9.38847 19.1573 10.155 19.8441 10.0262 20.3868C10.017 20.4144 9.98943 20.4942 9.9741 20.5125C9.80546 20.721 9.52645 20.8836 9.33328 21.0798C8.93468 21.3312 9.71348 22.9225 9.64603 23.7412C9.60003 24.0509 9.90358 24.0141 10.0906 24.5016C9.90051 24.5077 9.71655 24.5537 9.6215 24.6947C9.6215 24.6947 9.54178 24.7745 9.54178 24.94C9.54178 25.1577 9.71961 25.3356 9.94037 25.3356C10.1611 25.3356 10.339 25.1577 10.339 24.94C10.339 24.9186 10.339 24.8971 10.3359 24.8818C10.4218 24.8818 10.5352 24.8971 10.6548 24.9523L11.0074 25.1393C11.0074 25.1393 9.7748 26.1788 7.76036 25.5747C7.76036 25.5747 6.84665 25.2834 7.10421 24.4709C7.10421 24.4709 7.1502 24.336 7.27284 24.2563C7.29737 24.3667 7.36483 24.4648 7.45375 24.5292C7.52733 24.5813 7.61932 24.612 7.71743 24.612C7.96885 24.612 8.17429 24.4065 8.17429 24.1551C8.17429 24.0325 8.12829 23.9221 8.04857 23.8393C8.03018 23.8209 8.00871 23.8056 7.98419 23.7872V23.7841C7.97805 23.778 7.97499 23.778 7.97499 23.778C7.83701 23.6829 7.63158 23.6247 7.31577 23.7075C7.31577 23.7075 6.43579 23.9619 6.75467 24.9124C6.75467 24.9124 6.15984 24.7775 5.93601 25.0504C5.93601 25.0504 5.85936 25.1363 5.86549 25.2742V25.2834C5.87162 25.3386 5.88696 25.403 5.92988 25.4766C5.9912 25.5655 6.09545 25.6238 6.21196 25.6238C6.31928 25.6238 6.41433 25.5747 6.48178 25.495C6.48178 25.4919 6.48178 25.4919 6.48178 25.4919C6.50631 25.4613 6.5799 25.4184 6.68721 25.5318C8.02404 26.9238 10.201 26.3505 11.409 25.4184C11.409 25.4184 12.0775 24.7438 12.8256 24.3329C13.1169 24.4587 13.4235 24.5506 13.724 24.658C13.7025 25.0903 13.7914 25.7127 14.2759 26.4332C14.2759 26.4332 13.9355 27.0618 13.3591 26.7184C13.3591 26.7184 12.9329 26.3903 13.2947 25.9978C13.2947 25.9978 13.5369 25.7955 13.6412 26.05C13.5185 26.0561 13.4174 26.1573 13.4174 26.283C13.4174 26.4087 13.5216 26.516 13.6504 26.516C13.7792 26.516 13.8773 26.4179 13.8834 26.2953C13.8957 26.2002 13.9018 25.958 13.6933 25.7832C13.6933 25.7832 13.5093 25.5839 13.1629 25.6391C12.657 25.7188 12.3687 26.7766 13.3714 27.2182C13.3714 27.2182 14.1594 27.5769 14.5641 26.9882C14.5641 26.9882 14.558 26.9024 14.7113 27.0495C15.5453 27.8559 17.4033 27.6229 18.1423 27.0741C18.1423 27.0741 18.3293 26.9545 18.5347 26.8594C18.5439 27.1691 18.7984 27.4236 19.1142 27.4236C19.43 27.4236 19.6907 27.163 19.6907 26.8441C19.6907 26.559 19.4852 26.3229 19.2123 26.2738C19.2001 26.2707 18.8291 26.1634 18.2925 26.4915C18.2925 26.4915 17.7222 26.8502 17.7559 26.795C17.9491 26.4946 18.0656 26.0868 18.1484 25.6514C18.9579 25.7403 19.7918 25.7985 20.6534 25.82C20.6442 26.0714 20.6074 26.378 20.5124 26.6111C20.5124 26.6111 20.2088 26.7368 20.1996 26.9514C20.1996 26.9514 20.1659 27.1078 20.4357 27.3255C20.4357 27.3255 20.632 27.5432 20.6902 27.7118C20.6902 27.7118 20.7055 27.9479 21.0306 27.9479C21.0551 27.9479 21.0735 27.9479 21.0919 27.9418C21.1133 27.9448 21.1317 27.9479 21.1532 27.9479C21.4782 27.9479 21.4935 27.7118 21.4935 27.7118C21.5518 27.5432 21.748 27.3255 21.748 27.3255C22.0178 27.1078 21.9841 26.9514 21.9841 26.9514C21.978 26.7368 21.6714 26.6111 21.6714 26.6111C21.5763 26.378 21.5395 26.0714 21.5303 25.82C22.3919 25.8016 23.2259 25.7434 24.0354 25.6544C24.1181 26.0898 24.2377 26.4946 24.4278 26.7981C24.4615 26.8533 23.8912 26.4946 23.8912 26.4946C23.3516 26.1665 22.9775 26.2738 22.9683 26.2769C22.6955 26.3259 22.4931 26.562 22.4931 26.8472C22.4931 27.166 22.7506 27.4267 23.0695 27.4267C23.3884 27.4267 23.6398 27.1722 23.649 26.8625C23.8545 26.9606 24.0415 27.0771 24.0415 27.0771C24.7774 27.626 26.6385 27.859 27.4725 27.0526C27.6227 26.9054 27.6166 26.9913 27.6166 26.9913C28.0213 27.5769 28.8093 27.2212 28.8093 27.2212C29.8089 26.7828 29.5207 25.7219 29.0178 25.6422C28.6713 25.587 28.4843 25.7863 28.4843 25.7863C28.2789 25.9611 28.2819 26.2033 28.2942 26.2983C28.3003 26.421 28.4015 26.5191 28.5272 26.5191C28.6529 26.5191 28.7603 26.4179 28.7603 26.2861C28.7603 26.1542 28.6591 26.0592 28.5364 26.053C28.6407 25.8016 28.8829 26.0009 28.8829 26.0009C29.2447 26.3964 28.8185 26.7215 28.8185 26.7215C28.2451 27.0679 27.9017 26.4363 27.9017 26.4363C28.3831 25.7158 28.4751 25.0964 28.4536 24.6641C28.7541 24.5568 29.0638 24.4617 29.3551 24.336C30.1002 24.7499 30.7655 25.4214 30.7655 25.4214C31.9736 26.3535 34.1505 26.93 35.4873 25.5349C35.5947 25.4245 35.6682 25.4643 35.6897 25.495C35.6897 25.495 35.6897 25.495 35.6897 25.4981C35.7541 25.5747 35.8491 25.6268 35.9595 25.6268C36.076 25.6268 36.1772 25.5655 36.2416 25.4797C36.2815 25.4061 36.2999 25.3417 36.306 25.2865V25.2773C36.3121 25.1393 36.2355 25.0535 36.2355 25.0535H36.2447ZM11.3171 24.6334C11.3171 24.6334 11.2496 24.6917 11.1791 24.6058C10.4769 23.7412 11.5501 22.7631 11.8904 23.3579C11.8904 23.3579 11.4857 23.3732 11.5317 23.6584C11.5317 23.6584 11.5378 23.9527 11.9027 23.9343C11.9027 23.9343 12.4086 23.8822 12.289 23.2721C12.289 23.2721 12.2246 22.9961 11.915 22.9041C11.915 22.9041 11.0288 22.6619 10.6517 23.4346C10.6517 23.4346 10.5751 23.6185 10.5628 23.9006C10.4585 23.8178 10.3451 23.7534 10.2163 23.732C10.0508 23.5572 9.75947 22.1437 9.94651 21.414C11.3017 21.1319 11.7187 20.0097 11.7831 19.6939C12.0591 19.7828 12.2185 20.1017 12.2308 20.2335C12.2522 20.4175 12.1664 20.6076 12.2737 20.7578C12.4331 20.9786 12.7827 21.1779 12.9973 21.3251C13.0709 21.3711 14.0643 22.1407 14.1931 22.1683C14.3341 22.1989 14.423 22.0916 14.5457 22.1131C14.5886 22.1223 14.6193 22.1529 14.653 22.1805C14.653 22.1805 14.7235 22.251 14.8247 22.3246C14.5641 22.4963 14.2238 22.7447 13.773 23.1433C13.773 23.1433 13.4296 23.5879 11.314 24.6365L11.3171 24.6334ZM14.6499 25.5962C14.6499 25.5962 14.5641 25.9672 14.4966 26.05C14.4966 26.05 14.1992 25.5165 14.1747 24.8235C14.3985 24.8971 14.6223 24.9768 14.8523 25.0412C14.7787 25.216 14.7021 25.3877 14.6499 25.5993V25.5962ZM17.3052 26.8594C17.3052 26.8594 15.8887 27.4144 14.9167 26.4148C14.9167 26.4148 14.9842 25.7863 15.2509 25.1332C16.0389 25.3356 16.8606 25.4858 17.7069 25.5962C17.6486 26.1358 17.5321 26.8288 17.3052 26.8625V26.8594ZM15.904 24.106C16.1861 23.8424 16.5448 23.6615 16.9986 23.6553C16.9986 23.6553 17.6302 23.6461 17.7467 24.4372C17.0599 24.3391 16.4344 24.2287 15.904 24.106ZM17.3144 23.2077C17.2378 23.223 16.3087 23.2874 15.5391 24.0141C15.1129 23.9068 14.7297 23.8025 14.4292 23.7075C14.4905 23.5879 14.5549 23.4683 14.6469 23.3518C14.6469 23.3518 15.8488 21.8954 18.0012 22.714C18.0441 22.7294 17.9062 23.0758 17.3144 23.2077ZM18.3017 24.5138C18.3906 23.6553 18.455 22.9317 18.7678 22.9348C18.7678 22.9348 18.9916 22.9409 19.1449 23.1525C19.4147 23.5266 20.1414 23.9742 20.4756 24.6549C19.6968 24.6334 18.9609 24.5905 18.3017 24.5138ZM21.7082 24.6549C22.0393 23.9742 22.769 23.5266 23.0389 23.1525C23.1922 22.9409 23.416 22.9348 23.416 22.9348C23.7287 22.9348 23.7901 23.6553 23.882 24.5138C23.2228 24.5905 22.487 24.6365 21.7082 24.6549ZM24.1825 22.714C26.335 21.8954 27.5338 23.3518 27.5338 23.3518C27.6289 23.4683 27.6902 23.5909 27.7546 23.7105C27.4541 23.8056 27.0708 23.9098 26.6477 24.0171C25.8781 23.2874 24.946 23.2261 24.8693 23.2077C24.2776 23.0758 24.1365 22.7294 24.1825 22.714ZM25.1852 23.6523C25.642 23.6584 26.0007 23.8393 26.2828 24.106C25.7493 24.2287 25.1269 24.3421 24.437 24.4372C24.5535 23.6431 25.1852 23.6523 25.1852 23.6523ZM24.8785 26.8564C24.6547 26.8226 24.5351 26.1297 24.4769 25.5931C25.3262 25.4827 26.1448 25.3325 26.9359 25.1332C27.1996 25.7863 27.2671 26.4118 27.2671 26.4118C26.292 27.4144 24.8785 26.8564 24.8785 26.8564ZM27.6871 26.0438C27.6197 25.9641 27.5338 25.5901 27.5338 25.5901C27.4817 25.3816 27.4081 25.2099 27.3345 25.0351C27.5645 24.9707 27.7852 24.894 28.0091 24.8205C27.9845 25.5103 27.6871 26.0408 27.6871 26.0408V26.0438Z" fill="#4F4D4D"/>
<path d="M49.7663 11.3908L49.6559 6.84682H49.6252C49.5302 7.42018 49.4351 7.83411 49.3616 8.14686L48.595 11.3908H47.0558L46.323 8.14686C46.2525 7.83718 46.1544 7.42018 46.0532 6.84682H46.0225L45.952 11.3908H44.9954L45.2039 6.00977H46.9976C46.9976 6.00977 47.5863 8.72022 47.899 10.4587H47.9235C48.2823 8.72942 48.9844 6.00977 48.9844 6.00977H50.7474L50.9559 11.3908H49.7755H49.7663Z" fill="#4F4D4D"/>
<path d="M52.167 11.3913V8.23315L51.7133 8.1381V7.48501H53.2034V11.3913H52.167ZM52.1364 5.89062H53.1881V6.83806H52.1364V5.89062Z" fill="#4F4D4D"/>
<path d="M56.5761 11.3912V9.07018C56.5761 8.48148 56.3523 8.20247 55.874 8.20247C55.6042 8.20247 55.3711 8.32205 55.1872 8.44162V11.3912H54.1416V7.48499H54.8591L55.0185 7.93265C55.2424 7.66896 55.6716 7.40527 56.2542 7.40527C57.2415 7.40527 57.6339 7.98784 57.6339 8.97513V11.3912H56.5731H56.5761Z" fill="#4F4D4D"/>
<path d="M58.8083 11.3913V8.23315L58.3545 8.1381V7.48501H59.8446V11.3913H58.8083ZM58.7776 5.89062H59.8293V6.83806H58.7776V5.89062Z" fill="#4F4D4D"/>
<path d="M61.6935 8.51228C61.6935 9.11937 63.3829 8.93541 63.3829 10.2109C63.3829 10.9192 62.8556 11.4711 61.8437 11.4711C61.3746 11.4711 60.9362 11.3362 60.6725 11.1829L60.8871 10.4562C61.0711 10.585 61.4543 10.726 61.8131 10.726C62.1718 10.726 62.3864 10.5359 62.3864 10.2968C62.3864 9.59462 60.7215 9.82765 60.7215 8.49389C60.7215 7.92052 61.16 7.40234 62.2117 7.40234C62.6195 7.40234 63.0395 7.48206 63.3124 7.59244L63.1683 8.34978C62.9046 8.2302 62.5704 8.15048 62.227 8.15048C61.8836 8.15048 61.6935 8.28539 61.6935 8.50922V8.51228Z" fill="#4F4D4D"/>
<path d="M65.6488 11.4714C64.9558 11.4714 64.5021 11.1433 64.5021 10.1652V8.22746H63.9195V7.48545H64.5021V6.80784L65.5292 6.47363V7.48545H66.5748V8.22746H65.5292V10.1407C65.5292 10.4105 65.6641 10.5884 65.9431 10.5884C66.1578 10.5884 66.3816 10.524 66.541 10.4443L66.7005 11.2108C66.4705 11.3457 66.0627 11.4745 65.6488 11.4745V11.4714Z" fill="#4F4D4D"/>
<path d="M68.0618 9.71713C68.0618 10.3396 68.4114 10.683 69.0675 10.683C69.4661 10.683 69.8739 10.5327 70.2143 10.3549L70.4136 11.0877C70.0855 11.2625 69.552 11.471 68.9388 11.471C67.7338 11.471 67.0163 10.7228 67.0163 9.42892C67.0163 8.22393 67.5989 7.40527 68.8498 7.40527C70.0303 7.40527 70.4933 8.28219 70.4933 9.26335V9.71713H68.0618ZM68.7946 8.1718C68.2765 8.1718 68.0618 8.64092 68.0618 9.10391H69.4876C69.4876 8.60106 69.3374 8.1718 68.7946 8.1718Z" fill="#4F4D4D"/>
<path d="M73.5012 8.3523C73.3724 8.31244 73.1915 8.28791 73.0136 8.28791C72.7346 8.28791 72.4863 8.40749 72.3115 8.55159V11.3908H71.2751V7.48458H72.0018L72.1122 8.01196H72.1367C72.2563 7.73294 72.6058 7.41406 73.0688 7.41406C73.2773 7.41406 73.4368 7.44472 73.5226 7.46925L73.4981 8.35536L73.5012 8.3523Z" fill="#4F4D4D"/>
<path d="M74.4486 11.3913V8.23315L73.9948 8.1381V7.48501H75.4849V11.3913H74.4486ZM74.4179 5.89062H75.4696V6.83806H74.4179V5.89062Z" fill="#4F4D4D"/>
<path d="M79.94 9.42892C79.94 10.7596 79.2716 11.471 78.1065 11.471C76.9413 11.471 76.2729 10.7688 76.2729 9.42892C76.2729 8.28219 76.9107 7.40527 78.1065 7.40527C79.3023 7.40527 79.94 8.28219 79.94 9.42892ZM78.873 9.42892C78.873 8.48762 78.594 8.16261 78.1065 8.16261C77.619 8.16261 77.3491 8.49681 77.3491 9.42892C77.3491 10.361 77.5975 10.7044 78.1065 10.7044C78.6154 10.7044 78.873 10.361 78.873 9.42892Z" fill="#4F4D4D"/>
<path d="M46.6419 19.5962C45.9244 19.5962 45.3173 19.3417 44.8881 19.0228L45.2867 18.2011C45.5963 18.4709 46.1636 18.7192 46.6572 18.7192C47.1509 18.7192 47.4851 18.4157 47.4851 18.011C47.4851 16.8704 44.9984 17.4376 44.9984 15.5397C44.9984 14.7271 45.6362 14.0557 46.8964 14.0557C47.5249 14.0557 48.0615 14.1906 48.5 14.4236L48.1504 15.2607C47.8561 15.0859 47.3778 14.9663 46.8841 14.9663C46.3905 14.9663 46.0777 15.1257 46.0777 15.5243C46.0777 16.4902 48.5797 16.113 48.5797 17.9466C48.5797 18.799 47.8714 19.5962 46.6419 19.5962Z" fill="#4F4D4D"/>
<path d="M50.2691 17.8421C50.2691 18.4646 50.6187 18.808 51.2748 18.808C51.6734 18.808 52.0812 18.6577 52.4215 18.4799L52.6208 19.2127C52.2928 19.3875 51.7593 19.596 51.146 19.596C49.941 19.596 49.2236 18.8478 49.2236 17.5539C49.2236 16.3489 49.8061 15.5303 51.0571 15.5303C52.2376 15.5303 52.7006 16.4072 52.7006 17.3883V17.8421H50.2691ZM51.0019 16.2968C50.4838 16.2968 50.2691 16.7659 50.2691 17.2289H51.6949C51.6949 16.7261 51.5446 16.2968 51.0019 16.2968Z" fill="#4F4D4D"/>
<path d="M56.6007 19.2526C56.3769 19.3721 55.8525 19.596 55.2608 19.596C54.0957 19.596 53.3966 18.9337 53.3966 17.5631C53.3966 16.2876 54.0987 15.5303 55.2547 15.5303C55.7728 15.5303 56.2205 15.6345 56.5945 15.8491L56.3247 16.5574C56.0457 16.3888 55.687 16.3183 55.3436 16.3183C54.8009 16.3183 54.4575 16.6862 54.4575 17.5631C54.4575 18.44 54.7855 18.808 55.3497 18.808C55.7575 18.808 56.1561 18.6577 56.4106 18.5136L56.6007 19.2556V19.2526Z" fill="#4F4D4D"/>
<path d="M59.5104 16.4783C59.3817 16.4384 59.2008 16.4139 59.0229 16.4139C58.7439 16.4139 58.4955 16.5335 58.3208 16.6776V19.5168H57.2844V15.6106H58.0111L58.1215 16.1379H58.146C58.2656 15.8589 58.6151 15.54 59.0781 15.54C59.2866 15.54 59.446 15.5707 59.5319 15.5952L59.5074 16.4813L59.5104 16.4783Z" fill="#4F4D4D"/>
<path d="M60.8319 17.8421C60.8319 18.4646 61.1815 18.808 61.8376 18.808C62.2362 18.808 62.644 18.6577 62.9843 18.4799L63.1836 19.2127C62.8556 19.3875 62.3221 19.596 61.7088 19.596C60.5038 19.596 59.7864 18.8478 59.7864 17.5539C59.7864 16.3489 60.3689 15.5303 61.6199 15.5303C62.8004 15.5303 63.2634 16.4072 63.2634 17.3883V17.8421H60.8319ZM61.5647 16.2968C61.0466 16.2968 60.8319 16.7659 60.8319 17.2289H62.2577C62.2577 16.7261 62.1074 16.2968 61.5647 16.2968Z" fill="#4F4D4D"/>
<path d="M65.4955 19.5964C64.8026 19.5964 64.3488 19.2683 64.3488 18.2902V16.3525H63.7662V15.6105H64.3488V14.9328L65.3759 14.5986V15.6105H66.4215V16.3525H65.3759V18.2657C65.3759 18.5355 65.5108 18.7134 65.7898 18.7134C66.0045 18.7134 66.2283 18.649 66.3877 18.5693L66.5472 19.3358C66.3172 19.4707 65.9094 19.5995 65.4955 19.5995V19.5964Z" fill="#4F4D4D"/>
<path d="M69.506 19.5162L69.3619 19.0533C69.1626 19.3231 68.7732 19.596 68.2213 19.596C67.4394 19.596 66.9151 19.0931 66.9151 18.345C66.9151 17.5968 67.4486 17.189 68.3899 17.189H69.2116V16.9897C69.2116 16.4869 68.9234 16.3275 68.5248 16.3275C68.0618 16.3275 67.6724 16.447 67.3536 16.5912L67.0899 15.8491C67.4793 15.6805 68.0158 15.5303 68.6291 15.5303C69.7359 15.5303 70.2143 16.0392 70.2143 17.0388V19.5193H69.506V19.5162ZM69.2116 17.8115H68.5647C68.1354 17.8115 67.9361 18.02 67.9361 18.3143C67.9361 18.6731 68.1262 18.8877 68.5187 18.8877C68.767 18.8877 69.0215 18.7773 69.2116 18.624V17.8115Z" fill="#4F4D4D"/>
<path d="M73.3417 16.4783C73.213 16.4384 73.0321 16.4139 72.8542 16.4139C72.5752 16.4139 72.3268 16.5335 72.1521 16.6776V19.5168H71.1157V15.6106H71.8424L71.9528 16.1379H71.9773C72.0969 15.8589 72.4464 15.54 72.9094 15.54C73.1179 15.54 73.2773 15.5707 73.3632 15.5952L73.3387 16.4813L73.3417 16.4783Z" fill="#4F4D4D"/>
<path d="M73.7219 15.003L73.6177 14.4051L75.6352 13.8379L75.7701 14.6044L73.7219 15.003ZM74.2892 19.5164V16.3582L73.8354 16.2632V15.6101H75.3255V19.5164H74.2892Z" fill="#4F4D4D"/>
<path d="M78.6982 19.5162L78.5541 19.0533C78.3548 19.3231 77.9654 19.596 77.4135 19.596C76.6317 19.596 76.1074 19.0931 76.1074 18.345C76.1074 17.5968 76.6409 17.189 77.5822 17.189H78.4039V16.9897C78.4039 16.4869 78.1157 16.3275 77.7171 16.3275C77.2541 16.3275 76.8647 16.447 76.5458 16.5912L76.2821 15.8491C76.6715 15.6805 77.2081 15.5303 77.8213 15.5303C78.9282 15.5303 79.4065 16.0392 79.4065 17.0388V19.5193H78.6982V19.5162ZM78.4039 17.8115H77.7569C77.3277 17.8115 77.1284 18.02 77.1284 18.3143C77.1284 18.6731 77.3185 18.8877 77.7109 18.8877C77.9593 18.8877 78.2138 18.7773 78.4039 18.624V17.8115Z" fill="#4F4D4D"/>
<path d="M49.291 27.2428C48.5644 27.5709 48.0063 27.7212 47.3471 27.7212C45.7435 27.7212 44.9249 26.6051 44.9249 24.9003C44.9249 23.1956 45.7466 22.1807 47.4207 22.1807C48.2332 22.1807 48.7667 22.38 49.1898 22.6498L48.7514 23.447C48.4478 23.2385 47.9787 23.1036 47.436 23.1036C46.4641 23.1036 46.0256 23.8118 46.0256 24.8819C46.0256 26.1482 46.4947 26.8258 47.4207 26.8258C47.7641 26.8258 48.0738 26.7768 48.3283 26.6572V25.6607H47.5955L47.5311 24.8881H49.2941V27.2398L49.291 27.2428Z" fill="#4F4D4D"/>
<path d="M51.0356 25.9671C51.0356 26.5896 51.3852 26.933 52.0413 26.933C52.4399 26.933 52.8477 26.7827 53.1881 26.6049L53.3874 27.3377C53.0593 27.5125 52.5258 27.721 51.9125 27.721C50.7076 27.721 49.9901 26.9728 49.9901 25.6789C49.9901 24.4739 50.5726 23.6553 51.8236 23.6553C53.0041 23.6553 53.4671 24.5322 53.4671 25.5133V25.9671H51.0356ZM51.7684 24.4218C51.2503 24.4218 51.0356 24.8909 51.0356 25.3539H52.4614C52.4614 24.8511 52.3111 24.4218 51.7684 24.4218Z" fill="#4F4D4D"/>
<path d="M56.6804 27.6412V25.3202C56.6804 24.7315 56.4566 24.4525 55.9782 24.4525C55.7084 24.4525 55.4754 24.572 55.2914 24.6916V27.6412H54.2459V23.735H54.9634L55.1228 24.1826C55.3466 23.919 55.7759 23.6553 56.3584 23.6553C57.3457 23.6553 57.7382 24.2378 57.7382 25.2251V27.6412H56.6773H56.6804Z" fill="#4F4D4D"/>
<path d="M59.4859 25.9671C59.4859 26.5896 59.8354 26.933 60.4916 26.933C60.8902 26.933 61.298 26.7827 61.6383 26.6049L61.8376 27.3377C61.5095 27.5125 60.976 27.721 60.3628 27.721C59.1578 27.721 58.4403 26.9728 58.4403 25.6789C58.4403 24.4739 59.0229 23.6553 60.2739 23.6553C61.4543 23.6553 61.9173 24.5322 61.9173 25.5133V25.9671H59.4859ZM60.2187 24.4218C59.7005 24.4218 59.4859 24.8909 59.4859 25.3539H60.9116C60.9116 24.8511 60.7614 24.4218 60.2187 24.4218Z" fill="#4F4D4D"/>
<path d="M64.9221 24.6033C64.7934 24.5634 64.6125 24.5389 64.4346 24.5389C64.1556 24.5389 63.9073 24.6585 63.7325 24.8026V27.6418H62.6961V23.7356H63.4228L63.5332 24.2629H63.5577C63.6773 23.9839 64.0268 23.665 64.4898 23.665C64.6983 23.665 64.8578 23.6957 64.9436 23.7202L64.9191 24.6063L64.9221 24.6033Z" fill="#4F4D4D"/>
<path d="M67.8809 27.6412L67.7368 27.1783C67.5375 27.4481 67.1481 27.721 66.5962 27.721C65.8144 27.721 65.2901 27.2181 65.2901 26.47C65.2901 25.7218 65.8236 25.314 66.7649 25.314H67.5866V25.1148C67.5866 24.6119 67.2984 24.4525 66.8998 24.4525C66.4368 24.4525 66.0474 24.572 65.7285 24.7162L65.4648 23.9742C65.8542 23.8055 66.3908 23.6553 67.004 23.6553C68.1109 23.6553 68.5892 24.1642 68.5892 25.1638V27.6443H67.8809V27.6412ZM67.5866 25.9365H66.9396C66.5104 25.9365 66.3111 26.145 66.3111 26.4393C66.3111 26.7981 66.5012 27.0127 66.8937 27.0127C67.142 27.0127 67.3965 26.9023 67.5866 26.749V25.9365Z" fill="#4F4D4D"/>
<path d="M69.506 26.6049V22.1406H70.5331V26.5497C70.5331 26.8778 70.7324 26.9238 71.1617 26.9238V27.6566C71.1617 27.6566 70.8582 27.721 70.5883 27.721C69.7911 27.721 69.5029 27.2978 69.5029 26.6049H69.506Z" fill="#4F4D4D"/>
<path d="M76.1227 24.0386C76.0583 23.8147 76.0277 23.6154 76.0277 23.3211V22.1406H77.064V27.6413H76.2178L76.0982 27.212C75.9387 27.4512 75.5647 27.721 75.0618 27.721C74.1757 27.721 73.4674 27.0832 73.4674 25.6881C73.4674 24.3973 74.2002 23.6553 75.1507 23.6553C75.5739 23.6553 75.9081 23.7994 76.1227 24.0386ZM76.0277 24.6273C75.8682 24.5322 75.6199 24.4372 75.3194 24.4372C74.8257 24.4372 74.513 24.7714 74.513 25.682C74.513 26.5926 74.8073 26.9667 75.301 26.9667C75.5647 26.9667 75.8284 26.8379 76.0277 26.6325V24.6303V24.6273Z" fill="#4F4D4D"/>
<path d="M78.8975 25.9671C78.8975 26.5896 79.2471 26.933 79.9032 26.933C80.3018 26.933 80.7096 26.7827 81.05 26.6049L81.2493 27.3377C80.9212 27.5125 80.3877 27.721 79.7744 27.721C78.5695 27.721 77.852 26.9728 77.852 25.6789C77.852 24.4739 78.4346 23.6553 79.6855 23.6553C80.866 23.6553 81.329 24.5322 81.329 25.5133V25.9671H78.8975ZM79.6303 24.4218C79.1122 24.4218 78.8975 24.8909 78.8975 25.3539H80.3233C80.3233 24.8511 80.173 24.4218 79.6303 24.4218Z" fill="#4F4D4D"/>
<path d="M83.88 26.6049V22.1406H84.9071V26.5497C84.9071 26.8778 85.1064 26.9238 85.5357 26.9238V27.6566C85.5357 27.6566 85.2322 27.721 84.9623 27.721C84.1651 27.721 83.8769 27.2978 83.8769 26.6049H83.88Z" fill="#4F4D4D"/>
<path d="M88.6233 27.6412L88.4792 27.1783C88.2799 27.4481 87.8905 27.721 87.3386 27.721C86.5567 27.721 86.0324 27.2181 86.0324 26.47C86.0324 25.7218 86.5659 25.314 87.5072 25.314H88.3289V25.1148C88.3289 24.6119 88.0407 24.4525 87.6421 24.4525C87.1791 24.4525 86.7897 24.572 86.4709 24.7162L86.2072 23.9742C86.5966 23.8055 87.1331 23.6553 87.7464 23.6553C88.8532 23.6553 89.3316 24.1642 89.3316 25.1638V27.6443H88.6233V27.6412ZM88.3289 25.9365H87.682C87.2527 25.9365 87.0534 26.145 87.0534 26.4393C87.0534 26.7981 87.2435 27.0127 87.636 27.0127C87.8844 27.0127 88.1388 26.9023 88.3289 26.749V25.9365Z" fill="#4F4D4D"/>
<path d="M46.7001 34.0467H46.1114V35.9201H45.0659V30.5391H46.7001C47.8009 30.5391 48.7483 31.0664 48.7483 32.2224C48.7483 33.2587 47.9664 34.0467 46.7001 34.0467ZM46.6756 31.4252H46.1084V33.2281H46.6756C47.2888 33.2281 47.6414 32.854 47.6414 32.2622C47.6414 31.7134 47.2735 31.4252 46.6756 31.4252Z" fill="#4F4D4D"/>
<path d="M51.5845 32.8816C51.4557 32.8417 51.2748 32.8172 51.097 32.8172C50.8179 32.8172 50.5696 32.9368 50.3948 33.0809V35.9201H49.3585V32.0139H50.0851L50.1955 32.5413H50.22C50.3396 32.2622 50.6892 31.9434 51.1521 31.9434C51.3606 31.9434 51.5201 31.974 51.6059 31.9985L51.5814 32.8847L51.5845 32.8816Z" fill="#4F4D4D"/>
<path d="M52.909 34.2464C52.909 34.8689 53.2586 35.2123 53.9147 35.2123C54.3133 35.2123 54.7211 35.062 55.0615 34.8842L55.2608 35.617C54.9327 35.7918 54.3992 36.0003 53.786 36.0003C52.581 36.0003 51.8635 35.2521 51.8635 33.9582C51.8635 32.7532 52.4461 31.9346 53.697 31.9346C54.8775 31.9346 55.3405 32.8115 55.3405 33.7926V34.2464H52.909ZM53.6418 32.7011C53.1237 32.7011 52.909 33.1702 52.909 33.6332H54.3348C54.3348 33.1304 54.1846 32.7011 53.6418 32.7011Z" fill="#4F4D4D"/>
<path d="M57.0299 33.0416C57.0299 33.6487 58.7194 33.4647 58.7194 34.7402C58.7194 35.4485 58.192 36.0004 57.1802 36.0004C56.7111 36.0004 56.2726 35.8655 56.0089 35.7122L56.2235 34.9855C56.4075 35.1143 56.7908 35.2553 57.1495 35.2553C57.5082 35.2553 57.7229 35.0652 57.7229 34.8261C57.7229 34.1239 56.058 34.3569 56.058 33.0232C56.058 32.4498 56.4964 31.9316 57.5481 31.9316C57.9559 31.9316 58.376 32.0114 58.6488 32.1217L58.5047 32.8791C58.2411 32.7595 57.9068 32.6798 57.5634 32.6798C57.22 32.6798 57.0299 32.8147 57.0299 33.0385V33.0416Z" fill="#4F4D4D"/>
<path d="M59.8599 35.9206V32.7624L59.4062 32.6674V32.0143H60.8963V35.9206H59.8599ZM59.8293 30.4199H60.881V31.3674H59.8293V30.4199Z" fill="#4F4D4D"/>
<path d="M64.3733 32.3179C64.3089 32.094 64.2782 31.8947 64.2782 31.6004V30.4199H65.3146V35.9206H64.4683L64.3488 35.4913C64.1893 35.7305 63.8153 36.0003 63.3124 36.0003C62.4263 36.0003 61.718 35.3625 61.718 33.9674C61.718 32.6766 62.4508 31.9346 63.4013 31.9346C63.8244 31.9346 64.1587 32.0787 64.3733 32.3179ZM64.2782 32.9066C64.1188 32.8115 63.8704 32.7164 63.57 32.7164C63.0763 32.7164 62.7636 33.0507 62.7636 33.9613C62.7636 34.8719 63.0579 35.246 63.5516 35.246C63.8153 35.246 64.0789 35.1172 64.2782 34.9118V32.9096V32.9066Z" fill="#4F4D4D"/>
<path d="M67.1451 34.2464C67.1451 34.8689 67.4946 35.2123 68.1508 35.2123C68.5494 35.2123 68.9571 35.062 69.2975 34.8842L69.4968 35.617C69.1687 35.7918 68.6352 36.0003 68.022 36.0003C66.817 36.0003 66.0995 35.2521 66.0995 33.9582C66.0995 32.7532 66.6821 31.9346 67.9331 31.9346C69.1135 31.9346 69.5765 32.8115 69.5765 33.7926V34.2464H67.1451ZM67.8779 32.7011C67.3597 32.7011 67.1451 33.1702 67.1451 33.6332H68.5708C68.5708 33.1304 68.4206 32.7011 67.8779 32.7011Z" fill="#4F4D4D"/>
<path d="M72.7898 35.9205V33.5995C72.7898 33.0108 72.566 32.7318 72.0877 32.7318C71.8179 32.7318 71.5848 32.8513 71.4009 32.9709V35.9205H70.3553V32.0143H71.0728L71.2322 32.4619C71.4561 32.1983 71.8853 31.9346 72.4679 31.9346C73.4552 31.9346 73.8476 32.5171 73.8476 33.5044V35.9205H72.7868H72.7898Z" fill="#4F4D4D"/>
<path d="M77.8121 35.6568C77.5883 35.7764 77.064 36.0003 76.4722 36.0003C75.3071 36.0003 74.608 35.338 74.608 33.9674C74.608 32.6919 75.3102 31.9346 76.4661 31.9346C76.9843 31.9346 77.4319 32.0388 77.806 32.2534L77.5362 32.9617C77.2572 32.7931 76.8984 32.7226 76.555 32.7226C76.0123 32.7226 75.6689 33.0905 75.6689 33.9674C75.6689 34.8443 75.997 35.2123 76.5612 35.2123C76.9689 35.2123 77.3675 35.062 77.622 34.9179L77.8121 35.6599V35.6568Z" fill="#4F4D4D"/>
<path d="M78.824 35.9206V32.7624L78.3702 32.6674V32.0143H79.8603V35.9206H78.824ZM78.7933 30.4199H79.845V31.3674H78.7933V30.4199Z" fill="#4F4D4D"/>
<path d="M83.2177 35.9205L83.0736 35.4575C82.8743 35.7274 82.4849 36.0003 81.933 36.0003C81.1511 36.0003 80.6268 35.4974 80.6268 34.7493C80.6268 34.0011 81.1603 33.5933 82.1016 33.5933H82.9234V33.394C82.9234 32.8912 82.6351 32.7318 82.2365 32.7318C81.7736 32.7318 81.3842 32.8513 81.0653 32.9954L80.8016 32.2534C81.191 32.0848 81.7276 31.9346 82.3408 31.9346C83.4477 31.9346 83.926 32.4435 83.926 33.4431V35.9236H83.2177V35.9205ZM82.9234 34.2158H82.2764C81.8472 34.2158 81.6479 34.4243 81.6479 34.7186C81.6479 35.0774 81.838 35.292 82.2304 35.292C82.4788 35.292 82.7333 35.1816 82.9234 35.0283V34.2158Z" fill="#4F4D4D"/>
</svg>
