<?xml version="1.0" encoding="UTF-8"?><svg id="uuid-fe7d3438-b86a-4013-a52a-44438dc40ae4" xmlns="http://www.w3.org/2000/svg" xmlns:xlink="http://www.w3.org/1999/xlink" viewBox="0 0 226 52"><defs><clipPath id="uuid-7ff8e6a9-e2dd-411b-852e-8273d8edbb27"><rect x=".33" width="225" height="52" style="fill:none; stroke-width:0px;"/></clipPath></defs><g style="clip-path:url(#uuid-7ff8e6a9-e2dd-411b-852e-8273d8edbb27);"><path d="M86.2,20.69c-5.32,0-9.15,4.13-9.15,8.99s3.64,8.95,9.15,8.95,9.15-4.06,9.15-8.95-3.82-8.99-9.15-8.99ZM86.2,35.85c-3.26,0-6.03-2.88-6.03-6.18,0-3.56,2.81-6.22,6.03-6.22s6.03,2.65,6.03,6.22c0,3.3-2.81,6.18-6.03,6.18Z" style="fill:#fff; stroke-width:0px;"/><path d="M107.98,20.69c-2.55,0-4.76.95-6.37,2.46v-9.97c-.08-.72-.71-1.33-1.46-1.33s-1.35.57-1.46,1.33v24.3c.04.8.67,1.44,1.46,1.44s1.43-.65,1.46-1.44v-1.17c1.57,1.44,3.75,2.35,6.37,2.35,5.51,0,9.18-4.06,9.18-8.95s-3.82-9.02-9.18-9.02h0ZM107.98,35.85c-3.26,0-6.03-2.88-6.03-6.18,0-3.56,2.81-6.22,6.03-6.22s6.04,2.65,6.04,6.22c.04,3.3-2.77,6.18-6.04,6.18Z" style="fill:#fff; stroke-width:0px;"/><path d="M74.39,42.79c0-.87-.71-1.59-1.57-1.59s-1.57.72-1.57,1.59c0,3.3-2.63,6.37-6.03,6.37s-6.03-3.09-6.03-6.37c0-.87-.71-1.59-1.57-1.59s-1.57.72-1.57,1.59c0,5.19,3.98,9.14,9.15,9.14s9.22-3.9,9.22-9.14h-.03Z" style="fill:#fff; stroke-width:0px;"/><path d="M215.32,29.82c0-4.85-3.82-8.99-9.18-8.99s-9.18,4.13-9.18,8.99,3.64,8.95,9.18,8.95c2.55,0,4.68-.83,6.22-2.24v.95c0,.8.67,1.44,1.46,1.44s1.43-.65,1.46-1.44v-7.54s.04-.08.04-.11h0ZM206.14,36c-3.26,0-6.03-2.88-6.03-6.18,0-3.56,2.81-6.22,6.03-6.22s6.03,2.65,6.03,6.22c0,3.3-2.77,6.18-6.03,6.18Z" style="fill:#fff; stroke-width:0px;"/><path d="M173.72,42.71c0-.87-.71-1.59-1.57-1.59s-1.57.72-1.57,1.59c0,3.36-2.52,6.52-6.03,6.52s-6.03-3.17-6.03-6.52c0-.87-.71-1.59-1.57-1.59s-1.57.72-1.57,1.59c0,5.29,3.97,9.29,9.22,9.29s9.14-4.05,9.14-9.29h-.02,0Z" style="fill:#fff; stroke-width:0px;"/><path d="M73.08,23.45c.71-.08,1.27-.65,1.27-1.36s-.56-1.33-1.27-1.36l-9.15.08c-4.65.61-7.87,4.47-7.87,8.87,0,4.89,3.64,8.95,9.15,8.95s9.15-4.06,9.15-8.95c0-2.39-.94-4.59-2.51-6.22h1.24,0ZM71.25,29.67c0,3.3-2.81,6.18-6.03,6.18s-6.03-2.88-6.03-6.18c0-3.56,2.81-6.22,6.03-6.22s6.03,2.65,6.03,6.22Z" style="fill:#fff; stroke-width:0px;"/><path d="M174.06,22.28c0-.76-.6-1.36-1.35-1.36h-9.18c-4.8.49-8.13,4.4-8.13,8.91,0,4.89,3.64,8.95,9.18,8.95s9.18-4.06,9.18-8.95c0-2.39-.94-4.55-2.51-6.14h1.5c.71,0,1.31-.65,1.31-1.4h0ZM170.61,29.82c0,3.3-2.81,6.18-6.03,6.18s-6.03-2.88-6.03-6.18c0-3.56,2.81-6.22,6.03-6.22s6.03,2.65,6.03,6.22Z" style="fill:#fff; stroke-width:0px;"/><path d="M151.68,22.24c0-.83-.67-1.48-1.46-1.48s-1.46.68-1.46,1.48v15.28c0,.8.67,1.44,1.46,1.44s1.46-.65,1.46-1.44v-15.28Z" style="fill:#fff; stroke-width:0px;"/><path d="M181.18,22.32c0-.83-.67-1.48-1.46-1.48s-1.46.68-1.46,1.48v15.17c0,.8.67,1.44,1.46,1.44s1.46-.65,1.46-1.44v-15.17s0,.01,0,0Z" style="fill:#fff; stroke-width:0px;"/><path d="M144.07,13.33c0-.83-.68-1.48-1.46-1.48s-1.46.68-1.46,1.48v9.97c-1.61-1.52-3.82-2.46-6.37-2.46-5.32,0-9.18,4.13-9.18,8.99s3.64,8.95,9.18,8.95c2.59,0,4.8-.91,6.37-2.35v1.21c.07.72.71,1.33,1.46,1.33s1.35-.57,1.46-1.33V13.33s0,.01,0,0h0ZM134.78,36c-3.26,0-6.03-2.88-6.03-6.18,0-3.56,2.81-6.22,6.03-6.22s6.03,2.65,6.03,6.22c.04,3.26-2.77,6.18-6.03,6.18Z" style="fill:#fff; stroke-width:0px;"/><path d="M194.56,36h-1.35c-1.12,0-1.43-.34-1.43-1.25v-11.07h2.66c.67-.04,1.2-.61,1.2-1.29s-.53-1.25-1.2-1.29h-2.74v-7.81.11c0-.83-.67-1.59-1.46-1.59s-1.46.76-1.46,1.59v.04-.11,7.81h-2.36c-.67.04-1.16.61-1.16,1.29s.53,1.25,1.16,1.29h2.32v11.37c0,2.62.9,3.68,3.9,3.68.6,0,1.2,0,1.61-.04h.07c.75,0,1.35-.61,1.35-1.36.11-.72-.41-1.33-1.12-1.36h0Z" style="fill:#fff; stroke-width:0px;"/><path d="M223.95,36h-.86c-.94,0-1.88-.65-1.88-2.58V13.22c-.04-.76-.67-1.4-1.46-1.4s-1.42.61-1.46,1.4v20.4c0,3.6,1.8,5.12,4.5,5.12h1.2c.75,0,1.35-.61,1.35-1.36-.04-.76-.64-1.36-1.38-1.36v-.02h0Z" style="fill:#fff; stroke-width:0px;"/><path d="M39.84,31.55c.7,0,1.27.57,1.27,1.27s-.58,1.3-1.27,1.3-1.27-.57-1.27-1.27c-.03-.7.58-1.3,1.27-1.3Z" style="fill:#fff; stroke-width:0px;"/><path d="M34.03,34.13h-6.93c-.71,0-1.27-.57-1.27-1.29s.56-1.29,1.27-1.29h6.97c.71,0,1.27.57,1.27,1.29s-.6,1.29-1.31,1.29Z" style="fill:#fff; stroke-width:0px;"/><path d="M22,34.13H1.64c-.71,0-1.27-.57-1.27-1.29s.56-1.29,1.27-1.29h20.39c.71,0,1.27.57,1.27,1.29-.04.72-.6,1.29-1.31,1.29h.01Z" style="fill:#fff; stroke-width:0px;"/><path d="M1.59,19.3c-.7,0-1.26-.57-1.26-1.27s.59-1.31,1.29-1.31,1.26.57,1.26,1.27-.59,1.31-1.29,1.31Z" style="fill:#fff; stroke-width:0px;"/><path d="M13.56,19.3h-5.85c-.71,0-1.27-.57-1.27-1.29s.56-1.29,1.27-1.29h5.85c.71,0,1.27.57,1.27,1.29.04.72-.56,1.29-1.27,1.29Z" style="fill:#fff; stroke-width:0px;"/><path d="M39.84,19.3h-21.18c-.71,0-1.27-.57-1.27-1.29s.56-1.29,1.27-1.29h21.18c.71,0,1.27.57,1.27,1.29s-.56,1.29-1.27,1.29Z" style="fill:#fff; stroke-width:0px;"/><path d="M1.61,4.65c-.7.03-1.26-.54-1.26-1.27s.59-1.3,1.29-1.3,1.26.57,1.26,1.27-.59,1.3-1.29,1.3h0Z" style="fill:#fff; stroke-width:0px;"/><path d="M12.51,2.07h-5.06c-.71,0-1.27.6-1.27,1.31s.56,1.27,1.27,1.27h5.06c.71,0,1.27-.6,1.27-1.31s-.56-1.27-1.27-1.27Z" style="fill:#fff; stroke-width:0px;"/><path d="M39.84,2.07h-22.11c-.71,0-1.27.6-1.27,1.31s.56,1.27,1.27,1.27h22.11c.71,0,1.27-.6,1.27-1.31s-.56-1.27-1.27-1.27Z" style="fill:#fff; stroke-width:0px;"/><path d="M39.84,9.34c.7,0,1.27.57,1.27,1.27s-.58,1.3-1.27,1.3-1.27-.57-1.27-1.27.58-1.3,1.27-1.3Z" style="fill:#fff; stroke-width:0px;"/><path d="M22.03,11.91H1.64c-.71,0-1.27-.57-1.27-1.29s.56-1.29,1.27-1.29h20.39c.71,0,1.27.57,1.27,1.29,0,.68-.56,1.29-1.27,1.29Z" style="fill:#fff; stroke-width:0px;"/><path d="M33.99,11.91h-6.86c-.71,0-1.27-.57-1.27-1.29s.56-1.29,1.27-1.29h6.86c.71,0,1.27.57,1.27,1.29,0,.68-.56,1.29-1.27,1.29Z" style="fill:#fff; stroke-width:0px;"/><path d="M27.86,24.16c.69,0,1.26.57,1.26,1.27s-.56,1.3-1.29,1.3-1.26-.57-1.26-1.27.56-1.3,1.29-1.3Z" style="fill:#fff; stroke-width:0px;"/><path d="M22.45,26.73H1.64c-.71,0-1.27-.57-1.27-1.29s.56-1.29,1.27-1.29h20.8c.71,0,1.27.57,1.27,1.29,0,.68-.6,1.29-1.27,1.29h.01Z" style="fill:#fff; stroke-width:0px;"/><path d="M39.84,26.73h-6.45c-.71,0-1.27-.57-1.27-1.29s.56-1.29,1.27-1.29h6.45c.71,0,1.27.57,1.27,1.29,0,.68-.56,1.29-1.27,1.29Z" style="fill:#fff; stroke-width:0px;"/><path d="M1.59,41.52c-.7,0-1.26-.57-1.26-1.27s.59-1.3,1.29-1.3,1.26.57,1.26,1.27-.59,1.3-1.29,1.3Z" style="fill:#fff; stroke-width:0px;"/><path d="M13.23,41.52h-5.77c-.71,0-1.27-.57-1.27-1.29s.56-1.29,1.27-1.29h5.77c.71,0,1.27.57,1.27,1.29s-.56,1.29-1.27,1.29Z" style="fill:#fff; stroke-width:0px;"/><path d="M39.76,41.52h-21.29c-.71,0-1.27-.57-1.27-1.29s.56-1.29,1.27-1.29h21.29c.71,0,1.27.57,1.27,1.29s-.56,1.29-1.27,1.29Z" style="fill:#fff; stroke-width:0px;"/><path d="M58.35,8.06c-.32,0-.62-.05-.89-.14-.27-.09-.51-.23-.71-.4s-.35-.37-.46-.6c-.04-.08-.04-.16,0-.22.04-.07.1-.11.19-.14.07-.02.14-.01.21.02s.12.09.15.16c.08.15.19.28.33.39.14.12.32.21.52.27s.42.1.66.1c.26,0,.5-.04.71-.13.2-.09.37-.22.48-.39.12-.17.18-.38.18-.62,0-.31-.11-.57-.34-.8-.22-.22-.58-.36-1.06-.43-.59-.07-1.04-.25-1.37-.55-.33-.3-.49-.66-.49-1.09,0-.31.08-.58.24-.8.16-.23.39-.4.67-.53.29-.12.61-.19.98-.19.27,0,.53.04.75.13.22.09.42.2.59.35.17.14.3.3.41.47.05.08.07.16.05.24s-.06.13-.13.17c-.08.03-.15.04-.23.02-.08-.03-.14-.07-.18-.14-.08-.12-.17-.23-.28-.33s-.25-.19-.41-.25-.35-.09-.58-.1c-.39,0-.71.08-.95.25s-.36.42-.36.74c0,.17.04.33.14.47.09.15.24.27.45.37s.49.18.84.23c.63.09,1.09.29,1.39.58.3.3.45.68.45,1.16,0,.27-.05.52-.15.73-.1.21-.24.39-.41.53-.18.15-.38.25-.62.33-.24.08-.49.11-.76.11h0v.03h0Z" style="fill:#fff; stroke-width:0px;"/><path d="M69.31,7.99c-.08,0-.15-.03-.21-.08-.05-.06-.08-.13-.08-.21V2.36c0-.08.03-.16.08-.21.06-.06.13-.08.21-.08h3.52c.08,0,.15.03.21.08s.09.12.09.21c0,.08-.03.14-.09.2s-.13.08-.21.08h-3.22v2.09h2.35c.08,0,.15.03.21.08.06.06.08.12.08.2s-.03.15-.08.2c-.05.06-.13.08-.21.08h-2.35v2.12h3.22c.08,0,.15.03.21.08.06.06.09.12.09.2s-.03.16-.09.21-.13.08-.21.08h-3.52Z" style="fill:#fff; stroke-width:0px;"/><path d="M84.33,8.06c-.41,0-.78-.08-1.13-.24s-.66-.38-.93-.66c-.27-.28-.48-.6-.62-.97-.15-.37-.22-.76-.22-1.18s.07-.8.22-1.17.36-.69.62-.97c.27-.28.58-.5.93-.66s.73-.24,1.14-.24c.36,0,.69.05.98.16.3.11.58.28.85.51.04.03.07.08.08.12,0,.05,0,.09-.02.14-.02.04-.05.07-.09.1-.01.04-.03.07-.08.09-.04.02-.09.03-.14.02s-.1-.03-.15-.07c-.2-.17-.41-.3-.64-.38-.23-.08-.5-.12-.8-.12-.32,0-.63.07-.91.2-.28.13-.53.31-.75.54-.21.23-.38.49-.51.79-.12.3-.18.61-.18.95s.06.66.18.96.29.56.51.79c.21.23.46.4.75.53.28.13.59.19.91.19.27,0,.54-.04.78-.14.25-.09.48-.22.7-.39.06-.05.12-.07.19-.06s.13.04.18.09.08.12.08.2c0,.04,0,.08-.02.11-.01.03-.03.07-.06.1-.25.24-.54.4-.85.51-.31.1-.64.15-.98.15h-.02Z" style="fill:#fff; stroke-width:0px;"/><path d="M98.61,7.53l-1.23-1.99c.08-.03.16-.06.24-.11.29-.15.51-.36.67-.63.16-.27.24-.56.24-.92s-.08-.68-.24-.95c-.16-.28-.39-.49-.67-.65-.29-.16-.61-.23-.98-.23h-1.4c-.08,0-.15.03-.21.08-.06.06-.08.13-.08.21v5.33c0,.08.03.16.08.21.05.06.13.08.21.08s.15-.03.21-.08.08-.13.08-.21v-2.03h1.24l1.35,2.18c.03.05.07.09.1.11.04.02.09.04.15.04.14,0,.23-.04.27-.13.05-.09.03-.2-.04-.32h.01ZM96.64,5.1h-1.11v-2.46h1.11c.25,0,.48.05.68.16.2.11.35.25.47.44s.17.41.17.66c0,.23-.06.44-.17.62-.12.18-.27.33-.47.43-.2.1-.42.16-.68.16h0Z" style="fill:#fff; stroke-width:0px;"/><path d="M107.37,7.99c-.08,0-.15-.03-.21-.08s-.08-.13-.08-.21V2.36c0-.08.03-.16.08-.21s.12-.08.21-.08h3.52c.08,0,.15.03.21.08s.09.12.09.21c0,.08-.03.14-.09.2s-.13.08-.21.08h-3.22v2.09h2.35c.08,0,.15.03.21.08.06.06.08.12.08.2s-.03.15-.08.2c-.06.06-.13.08-.21.08h-2.35v2.12h3.22c.08,0,.15.03.21.08s.09.12.09.2-.03.16-.09.21-.13.08-.21.08h-3.52Z" style="fill:#fff; stroke-width:0px;"/><path d="M123.74,2.14c-.05-.05-.11-.08-.19-.08h-4.15c-.08,0-.14.03-.19.08s-.08.12-.08.2.03.14.08.19.11.08.19.08h1.77v5.09c0,.08.03.15.09.21s.13.09.21.09.15-.03.21-.09.08-.13.08-.21V2.6h1.79c.08,0,.14-.03.19-.08s.07-.11.07-.19-.03-.15-.07-.2h0Z" style="fill:#fff; stroke-width:0px;"/><path d="M135.96,7.57l-2.21-5.3c-.05-.13-.14-.2-.28-.2s-.23.07-.29.2l-2.2,5.29c-.04.09-.03.19.02.28.05.1.13.14.25.14.06,0,.12-.01.16-.04.05-.03.08-.08.11-.14l.51-1.23h2.89l.5,1.23c.03.06.07.11.12.14.05.03.1.04.16.04.1,0,.19-.05.24-.14.06-.09.06-.19.02-.28h0ZM132.23,6.07l1.24-3.03,1.23,3.03h-2.48,0Z" style="fill:#fff; stroke-width:0px;"/><path d="M148,7.53l-1.23-1.99c.08-.03.16-.06.24-.11.28-.15.51-.36.67-.63s.24-.56.24-.92-.08-.68-.24-.95c-.17-.28-.39-.49-.67-.65-.29-.16-.61-.23-.98-.23h-1.4c-.08,0-.15.03-.21.08-.06.06-.08.13-.08.21v5.33c0,.08.03.16.08.21.05.06.12.08.21.08.08,0,.15-.03.21-.08.05-.06.08-.13.08-.21v-2.03h1.24l1.35,2.18c.03.05.07.09.1.11.04.02.09.04.16.04.14,0,.23-.04.27-.13.05-.09.03-.2-.04-.32h0ZM144.92,5.1v-2.46h1.11c.26,0,.48.05.68.16.2.11.35.25.47.44s.17.41.17.66c0,.23-.06.44-.17.62s-.27.33-.47.43-.42.16-.68.16h-1.11Z" style="fill:#fff; stroke-width:0px;"/><path d="M156.7,1.43c-.08,0-.15-.03-.21-.09-.06-.06-.09-.13-.09-.21s.02-.15.07-.2l.85-.86c.05-.06.12-.08.2-.08s.15.03.21.09c.06.06.08.13.08.22,0,.03,0,.07-.02.11,0,.03-.03.07-.06.09l-.84.86c-.05.05-.11.08-.2.08h0ZM156.76,7.99c-.09,0-.15-.03-.21-.08-.05-.06-.08-.13-.08-.21V2.36c0-.08.03-.16.08-.21.06-.06.13-.08.21-.08s.15.03.21.08c.05.06.08.13.08.21v5.33c0,.08-.03.16-.08.21-.06.06-.13.08-.21.08h0Z" style="fill:#fff; stroke-width:0px;"/><path d="M170.43,7.57l-2.21-5.3c-.06-.13-.14-.2-.28-.2s-.23.07-.29.2l-2.2,5.29c-.04.09-.03.19.02.28.05.1.13.14.25.14.06,0,.12-.01.16-.04.05-.03.08-.08.11-.14l.51-1.23h2.89l.5,1.23c.03.06.07.11.12.14.05.03.1.04.16.04.1,0,.18-.05.24-.14.06-.09.06-.19.02-.28h0ZM166.71,6.07l1.24-3.03,1.23,3.03h-2.48,0Z" style="fill:#fff; stroke-width:0px;"/></g></svg>